<svg
  viewBox="0 0 188 182"
  fill="none"
  xmlns="http://www.w3.org/2000/svg"
  width="24"
  height="24"
>
  <rect
    y="-3.05176e-05"
    width="188"
    height="182"
    rx="30"
    fill="url(#paint0_linear_753_30)"
  />
  <path
    d="M96.6993 140.554L92.3451 158.175L85.1491 156.383L89.4962 139.037L90.1049 136.608L87.6804 135.981L77.9606 133.47L75.4914 132.832L74.8806 135.308L70.5865 152.715L63.3942 150.931L67.8163 133.309L68.4245 130.886L66.007 130.254L57.4033 128.008L57.3885 128.004L57.3737 128L44.5314 124.813L48.492 115.737C49.2036 115.918 50.0289 116.127 50.8526 116.333C51.9573 116.608 53.0738 116.881 53.9115 117.073C54.3238 117.168 54.7009 117.25 54.9834 117.303C55.1076 117.326 55.2926 117.359 55.4734 117.376L55.4795 117.377C55.4801 117.377 55.4808 117.377 55.4815 117.377C57.7113 117.882 59.617 117.45 61.0852 116.403C62.5186 115.382 63.2864 113.954 63.6672 112.949L63.7199 112.81L63.7558 112.666L71.6615 80.9805L70.6667 80.7323L70.7075 80.5818L71.7332 80.835L77.3294 58.1716L77.3861 57.9419L77.3992 57.7057C77.4856 56.1368 77.2839 54.1233 76.1058 52.2524C74.9227 50.3738 72.9541 48.9532 70.1206 48.1805C70.0604 48.1582 70.0141 48.1432 69.9931 48.1363L69.9904 48.1354C69.873 48.0971 69.7361 48.0583 69.6144 48.0248C69.3554 47.9536 68.9953 47.8607 68.5821 47.7567C67.7492 47.5469 66.6328 47.2751 65.5208 47.0074C64.8385 46.8431 64.1549 46.6796 63.5348 46.5319L65.5259 38.5243L77.8841 41.6293V41.7289L79.8278 42.1871L87.5237 44.0013L89.9466 44.5725L90.5497 42.1574L94.9003 24.7368L102.093 26.5256L97.8187 43.5197L97.1962 45.9946L99.6782 46.5882L109.335 48.8977L111.764 49.4786L112.369 47.0556L116.58 30.193L123.781 31.9828L119.428 49.3263L118.866 51.5663L121.048 52.3234C128.59 54.9406 134.765 58.0746 138.783 62.1234C142.288 65.656 144.217 69.9393 143.862 75.5241L143.59 77.4231C142.881 82.3712 141.186 85.8505 138.936 88.2712C136.684 90.6928 133.714 92.2287 130.158 93.0135L123.449 94.494L129.522 97.7064C134.668 100.429 138.22 103.661 139.986 107.692C141.737 111.686 141.927 116.906 139.442 124.021L139.442 124.023C136.427 132.683 131.479 137.093 125.048 139.064C118.387 141.106 109.854 140.619 99.6173 138.681L97.2719 138.237L96.6993 140.554ZM120.974 117.139L121.08 116.713L121.071 116.63C122.072 112.13 120.95 108.312 118.531 105.232C116.125 102.169 112.525 99.9359 108.812 98.2598C102.972 95.6235 96.0814 94.0602 91.5766 93.0382C90.3938 92.7699 89.3756 92.5388 88.584 92.3355L86.1233 91.7035L85.5089 94.1687L78.866 120.823L78.2499 123.295L80.728 123.887C81.425 124.053 82.2797 124.275 83.2601 124.529C87.7281 125.689 94.8062 127.526 101.464 127.877C105.539 128.092 109.761 127.778 113.304 126.234C116.979 124.633 119.841 121.732 120.974 117.139ZM88.5162 82.0005L87.9059 84.4528L90.3593 85.0586C90.8766 85.1863 91.5042 85.3531 92.2223 85.5438C95.9218 86.5266 102.021 88.1469 107.791 88.3552C111.255 88.4803 114.896 88.1184 117.985 86.6186C121.194 85.0602 123.653 82.3398 124.678 78.1811C125.745 73.9208 124.9 70.2962 122.8 67.3648C120.779 64.5438 117.718 62.5287 114.585 61.0481C109.534 58.6608 103.533 57.3458 99.7672 56.5206C98.9056 56.3318 98.1611 56.1686 97.5717 56.0241L95.1304 55.4256L94.5233 57.8648L88.5162 82.0005Z"
    stroke="white"
    stroke-width="5.04487"
  />
  <defs>
    <linearGradient
      id="paint0_linear_753_30"
      x1="9"
      y1="11"
      x2="180"
      y2="169"
      gradientUnits="userSpaceOnUse"
    >
      <stop stop-color="#EA580C" />
      <stop
        offset="1"
        stop-color="#EAAEDE"
      />
    </linearGradient>
  </defs>
</svg>
